{
    "asset" : {
        "generator" : "Khronos glTF Blender I/O v3.2.40",
        "version" : "2.0"
    },
    "scene" : 0,
    "scenes" : [
        {
            "name" : "Scene",
            "nodes" : [
                0
            ]
        }
    ],
    "nodes" : [
        {
            "mesh" : 0,
            "name" : "Robot"
        }
    ],
    "materials" : [
        {
            "doubleSided" : true,
            "name" : "Robot Material",
            "pbrMetallicRoughness" : {
                "baseColorTexture" : {
                    "index" : 0
                },
                "metallicFactor" : 0,
                "roughnessFactor" : 0.5
            }
        }
    ],
    "meshes" : [
        {
            "name" : "Robot Mesh",
            "primitives" : [
                {
                    "attributes" : {
                        "POSITION" : 0,
                        "NORMAL" : 1,
                        "TEXCOORD_0" : 2
                    },
                    "indices" : 3,
                    "material" : 0
                }
            ]
        }
    ],
    "textures" : [
        {
            "sampler" : 0,
            "source" : 0
        }
    ],
    "images" : [
        {
            "bufferView" : 4,
            "mimeType" : "image/png",
            "name" : "Robot_Diffuse"
        }
    ],
    "accessors" : [
        {
            "bufferView" : 0,
            "componentType" : 5126,
            "count" : 902,
            "max" : [
                0.7668840885162354,
                2.529911518096924,
                0.4137072265148163
            ],
            "min" : [
                -0.7668840885162354,
                0.0012984275817871094,
                -0.43666914105415344
            ],
            "type" : "VEC3"
        },
        {
            "bufferView" : 1,
            "componentType" : 5126,
            "count" : 902,
            "type" : "VEC3"
        },
        {
            "bufferView" : 2,
            "componentType" : 5126,
            "count" : 902,
            "type" : "VEC2"
        },
        {
            "bufferView" : 3,
            "componentType" : 5123,
            "count" : 2922,
            "type" : "SCALAR"
        }
    ],
    "bufferViews" : [
        {
            "buffer" : 0,
            "byteLength" : 10824,
            "byteOffset" : 0
        },
        {
            "buffer" : 0,
            "byteLength" : 10824,
            "byteOffset" : 10824
        },
        {
            "buffer" : 0,
            "byteLength" : 7216,
            "byteOffset" : 21648
        },
        {
            "buffer" : 0,
            "byteLength" : 5844,
            "byteOffset" : 28864
        },
        {
            "buffer" : 0,
            "byteLength" : 61224,
            "byteOffset" : 34708
        }
    ],
    "samplers" : [
        {
            "magFilter" : 9729,
            "minFilter" : 9987
        }
    ],
    "buffers" : [
        {
            "byteLength" : 95932,
            "uri" : "data:application/octet-stream;base64,"
        }
    ]
}
