{
    "asset" : {
        "copyright" : "Jovi",
        "generator" : "Khronos glTF Blender I/O v3.2.40",
        "version" : "2.0"
    },
    "scene" : 0,
    "scenes" : [
        {
            "name" : "Scene",
            "nodes" : [
                0,
                1
            ]
        }
    ],
    "nodes" : [
        {
            "mesh" : 0,
            "name" : "Room",
            "scale" : [
                8,
                4,
                5
            ],
            "translation" : [
                0,
                4,
                0
            ]
        },
        {
            "mesh" : 1,
            "name" : "VentCelling",
            "translation" : [
                0,
                8,
                0
            ]
        }
    ],
    "materials" : [
        {
            "doubleSided" : true,
            "name" : "Wall",
            "pbrMetallicRoughness" : {
                "baseColorTexture" : {
                    "index" : 0
                },
                "metallicFactor" : 0,
                "roughnessFactor" : 0.5
            }
        },
        {
            "doubleSided" : true,
            "name" : "Floor",
            "pbrMetallicRoughness" : {
                "baseColorTexture" : {
                    "index" : 1
                },
                "metallicFactor" : 0,
                "roughnessFactor" : 0.4000000059604645
            }
        }
    ],
    "meshes" : [
        {
            "name" : "Cube",
            "primitives" : [
                {
                    "attributes" : {
                        "POSITION" : 0,
                        "NORMAL" : 1,
                        "TEXCOORD_0" : 2
                    },
                    "indices" : 3,
                    "material" : 0
                },
                {
                    "attributes" : {
                        "POSITION" : 4,
                        "NORMAL" : 5,
                        "TEXCOORD_0" : 6
                    },
                    "indices" : 7,
                    "material" : 1
                }
            ]
        },
        {
            "name" : "Cube.001",
            "primitives" : [
                {
                    "attributes" : {
                        "POSITION" : 8,
                        "NORMAL" : 9,
                        "TEXCOORD_0" : 10
                    },
                    "indices" : 11,
                    "material" : 0
                }
            ]
        }
    ],
    "textures" : [
        {
            "sampler" : 0,
            "source" : 0
        },
        {
            "sampler" : 0,
            "source" : 1
        }
    ],
    "images" : [
        {
            "bufferView" : 4,
            "mimeType" : "image/png",
            "name" : "wall"
        },
        {
            "bufferView" : 9,
            "mimeType" : "image/jpeg",
            "name" : "342720.55e0a91d907ec"
        }
    ],
    "accessors" : [
        {
            "bufferView" : 0,
            "componentType" : 5126,
            "count" : 28,
            "max" : [
                1,
                1,
                1.7999999523162842
            ],
            "min" : [
                -1,
                -1.0027644634246826,
                -1
            ],
            "type" : "VEC3"
        },
        {
            "bufferView" : 1,
            "componentType" : 5126,
            "count" : 28,
            "type" : "VEC3"
        },
        {
            "bufferView" : 2,
            "componentType" : 5126,
            "count" : 28,
            "type" : "VEC2"
        },
        {
            "bufferView" : 3,
            "componentType" : 5123,
            "count" : 72,
            "type" : "SCALAR"
        },
        {
            "bufferView" : 5,
            "componentType" : 5126,
            "count" : 34,
            "max" : [
                1,
                1,
                1.7999999523162842
            ],
            "min" : [
                -1,
                -1.0027644634246826,
                -1
            ],
            "type" : "VEC3"
        },
        {
            "bufferView" : 6,
            "componentType" : 5126,
            "count" : 34,
            "type" : "VEC3"
        },
        {
            "bufferView" : 7,
            "componentType" : 5126,
            "count" : 34,
            "type" : "VEC2"
        },
        {
            "bufferView" : 8,
            "componentType" : 5123,
            "count" : 60,
            "type" : "SCALAR"
        },
        {
            "bufferView" : 10,
            "componentType" : 5126,
            "count" : 20,
            "max" : [
                2.200000047683716,
                4.000000476837158,
                1.3000000715255737
            ],
            "min" : [
                -2.200000047683716,
                4.76837158203125e-07,
                -1.3000000715255737
            ],
            "type" : "VEC3"
        },
        {
            "bufferView" : 11,
            "componentType" : 5126,
            "count" : 20,
            "type" : "VEC3"
        },
        {
            "bufferView" : 12,
            "componentType" : 5126,
            "count" : 20,
            "type" : "VEC2"
        },
        {
            "bufferView" : 13,
            "componentType" : 5123,
            "count" : 30,
            "type" : "SCALAR"
        }
    ],
    "bufferViews" : [
        {
            "buffer" : 0,
            "byteLength" : 336,
            "byteOffset" : 0
        },
        {
            "buffer" : 0,
            "byteLength" : 336,
            "byteOffset" : 336
        },
        {
            "buffer" : 0,
            "byteLength" : 224,
            "byteOffset" : 672
        },
        {
            "buffer" : 0,
            "byteLength" : 144,
            "byteOffset" : 896
        },
        {
            "buffer" : 0,
            "byteLength" : 12592,
            "byteOffset" : 1040
        },
        {
            "buffer" : 0,
            "byteLength" : 408,
            "byteOffset" : 13632
        },
        {
            "buffer" : 0,
            "byteLength" : 408,
            "byteOffset" : 14040
        },
        {
            "buffer" : 0,
            "byteLength" : 272,
            "byteOffset" : 14448
        },
        {
            "buffer" : 0,
            "byteLength" : 120,
            "byteOffset" : 14720
        },
        {
            "buffer" : 0,
            "byteLength" : 366355,
            "byteOffset" : 14840
        },
        {
            "buffer" : 0,
            "byteLength" : 240,
            "byteOffset" : 381196
        },
        {
            "buffer" : 0,
            "byteLength" : 240,
            "byteOffset" : 381436
        },
        {
            "buffer" : 0,
            "byteLength" : 160,
            "byteOffset" : 381676
        },
        {
            "buffer" : 0,
            "byteLength" : 60,
            "byteOffset" : 381836
        }
    ],
    "samplers" : [
        {
            "magFilter" : 9729,
            "minFilter" : 9987
        }
    ],
    "buffers" : [
        {
            "byteLength" : 381896,
            "uri" : "data:application/octet-stream;base64,"
        }
    ]
}
